<svg width="460" height="145" viewBox="0 0 460 145" fill="none" xmlns="http://www.w3.org/2000/svg">
<path d="M30.8001 118.16C30.8001 121.707 30.7068 124.88 30.5201 127.68C30.3335 130.574 29.8201 133.14 28.9801 135.38C26.6468 141.54 21.3268 144.62 13.0201 144.62C12.2735 144.62 11.3401 144.574 10.2201 144.48C9.10012 144.48 7.98012 144.434 6.86012 144.34C5.64678 144.247 4.52678 144.107 3.50012 143.92C2.38012 143.827 1.49345 143.687 0.840117 143.5C0.466784 142.194 0.23345 140.84 0.140117 139.44C0.0467835 138.04 0.0001169 136.78 0.0001169 135.66C0.0001169 133.7 0.0934502 131.74 0.280117 129.78C0.466784 127.82 0.746784 126.094 1.12012 124.6C1.68012 124.787 2.52012 124.927 3.64012 125.02C4.66678 125.114 5.50678 125.16 6.16012 125.16C8.49345 125.16 9.98678 124.507 10.6401 123.2C11.3868 121.987 11.7601 119.467 11.7601 115.64V36.2602H30.8001V118.16ZM21.7001 1.54023C23.9401 1.54023 25.9468 2.00689 27.7201 2.94023C29.5868 3.78023 31.1268 4.90023 32.3401 6.30023C33.5535 7.70023 34.4868 9.2869 35.1401 11.0602C35.7935 12.7402 36.1201 14.3736 36.1201 15.9602C36.1201 18.1069 35.7001 20.1136 34.8601 21.9802C34.1135 23.7536 33.0401 25.3402 31.6401 26.7402C30.3335 28.0469 28.7935 29.1202 27.0201 29.9602C25.3401 30.7069 23.5201 31.0802 21.5601 31.0802C19.1335 31.0802 16.9868 30.7069 15.1201 29.9602C13.2535 29.1202 11.6668 28.0936 10.3601 26.8802C9.14678 25.5736 8.26012 24.0802 7.70012 22.4002C7.04678 20.7202 6.72012 18.9936 6.72012 17.2202C6.72012 15.4469 7.09345 13.6269 7.84012 11.7602C8.49345 9.89357 9.42678 8.21356 10.6401 6.72023C11.9468 5.13356 13.5335 3.87356 15.4001 2.94023C17.2668 2.00689 19.3668 1.54023 21.7001 1.54023ZM68.2068 73.6402C69.4202 77.6536 71.4268 80.9202 74.2268 83.4402C77.0268 85.9602 80.9002 87.2202 85.8468 87.2202C87.3402 87.2202 88.9268 87.1269 90.6068 86.9402C92.3802 86.6602 94.1068 86.3336 95.7868 85.9602C97.4668 85.4936 99.0535 85.0269 100.547 84.5602C102.04 84.0002 103.347 83.4869 104.467 83.0202C104.654 85.7269 104.747 88.6202 104.747 91.7002C104.84 94.6869 104.887 97.6736 104.887 100.66C104.887 105.607 104.747 110.04 104.467 113.96C97.1868 117.507 89.0202 119.28 79.9668 119.28C75.7668 119.28 71.5202 118.814 67.2268 117.88C62.9335 116.947 58.7802 115.174 54.7668 112.56C51.2202 110.227 48.2802 107.52 45.9468 104.44C43.7068 101.267 41.9335 98.0469 40.6268 94.7802C39.3202 91.4202 38.4335 88.1536 37.9668 84.9802C37.5002 81.8069 37.2668 78.9602 37.2668 76.4402C37.2668 72.7069 37.6868 68.8336 38.5268 64.8202C39.4602 60.7136 40.8602 56.8402 42.7268 53.2002C44.5935 49.4669 46.9735 46.0602 49.8668 42.9802C52.7602 39.9002 56.1668 37.4736 60.0868 35.7002C64.8468 33.5536 69.8868 32.4802 75.2068 32.4802C80.8068 32.4802 85.8468 33.6002 90.3268 35.8402C94.8068 38.0802 98.4468 41.1602 101.247 45.0802C103.954 48.8136 105.634 52.9669 106.287 57.5402C107.034 62.1136 107.407 67.4802 107.407 73.6402H68.2068ZM76.1868 47.6002C74.2268 47.6002 72.3602 48.4402 70.5868 50.1202C68.8135 51.7069 67.6468 54.5536 67.0868 58.6602H85.4268C85.0535 54.9269 83.9335 52.1736 82.0668 50.4002C80.2935 48.5336 78.3335 47.6002 76.1868 47.6002ZM135.991 0.000231504C135.525 12.9736 135.151 26.1336 134.871 39.4802C134.685 52.8269 134.591 67.0136 134.591 82.0402C134.591 88.3869 134.591 93.5202 134.591 97.4402C134.591 101.267 134.591 104.44 134.591 106.96C134.591 109.387 134.591 111.394 134.591 112.98C134.685 114.474 134.731 116.06 134.731 117.74H113.731C114.011 109.527 114.198 99.9136 114.291 88.9002C114.385 77.8869 114.431 65.1002 114.431 50.5402C114.431 44.1936 114.431 38.8269 114.431 34.4402C114.431 29.9602 114.385 25.9002 114.291 22.2602C114.291 18.6202 114.291 15.1202 114.291 11.7602C114.291 8.3069 114.291 4.3869 114.291 0.000231504H135.991ZM165.245 0.000231504C164.779 12.9736 164.405 26.1336 164.125 39.4802C163.939 52.8269 163.845 67.0136 163.845 82.0402C163.845 88.3869 163.845 93.5202 163.845 97.4402C163.845 101.267 163.845 104.44 163.845 106.96C163.845 109.387 163.845 111.394 163.845 112.98C163.939 114.474 163.985 116.06 163.985 117.74H142.985C143.265 109.527 143.452 99.9136 143.545 88.9002C143.639 77.8869 143.685 65.1002 143.685 50.5402C143.685 44.1936 143.685 38.8269 143.685 34.4402C143.685 29.9602 143.639 25.9002 143.545 22.2602C143.545 18.6202 143.545 15.1202 143.545 11.7602C143.545 8.3069 143.545 4.3869 143.545 0.000231504H165.245ZM233.279 34.0202L204.439 143.08H183.299L189.879 115.36L168.319 34.0202H190.439L198.139 74.7602C198.606 76.9069 198.979 78.5402 199.259 79.6602C199.633 80.7802 200.193 81.3402 200.939 81.3402C202.153 81.3402 203.179 79.1469 204.019 74.7602L211.999 34.0202H233.279ZM256.64 118.16C256.64 121.707 256.547 124.88 256.36 127.68C256.173 130.574 255.66 133.14 254.82 135.38C252.487 141.54 247.167 144.62 238.86 144.62C238.113 144.62 237.18 144.574 236.06 144.48C234.94 144.48 233.82 144.434 232.7 144.34C231.487 144.247 230.367 144.107 229.34 143.92C228.22 143.827 227.333 143.687 226.68 143.5C226.307 142.194 226.073 140.84 225.98 139.44C225.887 138.04 225.84 136.78 225.84 135.66C225.84 133.7 225.933 131.74 226.12 129.78C226.307 127.82 226.587 126.094 226.96 124.6C227.52 124.787 228.36 124.927 229.48 125.02C230.507 125.114 231.347 125.16 232 125.16C234.333 125.16 235.827 124.507 236.48 123.2C237.227 121.987 237.6 119.467 237.6 115.64V36.2602H256.64V118.16ZM247.54 1.54023C249.78 1.54023 251.787 2.00689 253.56 2.94023C255.427 3.78023 256.967 4.90023 258.18 6.30023C259.393 7.70023 260.327 9.2869 260.98 11.0602C261.633 12.7402 261.96 14.3736 261.96 15.9602C261.96 18.1069 261.54 20.1136 260.7 21.9802C259.953 23.7536 258.88 25.3402 257.48 26.7402C256.173 28.0469 254.633 29.1202 252.86 29.9602C251.18 30.7069 249.36 31.0802 247.4 31.0802C244.973 31.0802 242.827 30.7069 240.96 29.9602C239.093 29.1202 237.507 28.0936 236.2 26.8802C234.987 25.5736 234.1 24.0802 233.54 22.4002C232.887 20.7202 232.56 18.9936 232.56 17.2202C232.56 15.4469 232.933 13.6269 233.68 11.7602C234.333 9.89357 235.267 8.21356 236.48 6.72023C237.787 5.13356 239.373 3.87356 241.24 2.94023C243.107 2.00689 245.207 1.54023 247.54 1.54023ZM294.047 73.6402C295.26 77.6536 297.267 80.9202 300.067 83.4402C302.867 85.9602 306.74 87.2202 311.687 87.2202C313.18 87.2202 314.767 87.1269 316.447 86.9402C318.22 86.6602 319.947 86.3336 321.627 85.9602C323.307 85.4936 324.893 85.0269 326.387 84.5602C327.88 84.0002 329.187 83.4869 330.307 83.0202C330.493 85.7269 330.587 88.6202 330.587 91.7002C330.68 94.6869 330.727 97.6736 330.727 100.66C330.727 105.607 330.587 110.04 330.307 113.96C323.027 117.507 314.86 119.28 305.807 119.28C301.607 119.28 297.36 118.814 293.067 117.88C288.773 116.947 284.62 115.174 280.607 112.56C277.06 110.227 274.12 107.52 271.787 104.44C269.547 101.267 267.773 98.0469 266.467 94.7802C265.16 91.4202 264.273 88.1536 263.807 84.9802C263.34 81.8069 263.107 78.9602 263.107 76.4402C263.107 72.7069 263.527 68.8336 264.367 64.8202C265.3 60.7136 266.7 56.8402 268.567 53.2002C270.433 49.4669 272.813 46.0602 275.707 42.9802C278.6 39.9002 282.007 37.4736 285.927 35.7002C290.687 33.5536 295.727 32.4802 301.047 32.4802C306.647 32.4802 311.687 33.6002 316.167 35.8402C320.647 38.0802 324.287 41.1602 327.087 45.0802C329.793 48.8136 331.473 52.9669 332.127 57.5402C332.873 62.1136 333.247 67.4802 333.247 73.6402H294.047ZM302.027 47.6002C300.067 47.6002 298.2 48.4402 296.427 50.1202C294.653 51.7069 293.487 54.5536 292.927 58.6602H311.267C310.893 54.9269 309.773 52.1736 307.907 50.4002C306.133 48.5336 304.173 47.6002 302.027 47.6002ZM361.831 0.000231504C361.365 12.9736 360.991 26.1336 360.711 39.4802C360.525 52.8269 360.431 67.0136 360.431 82.0402C360.431 88.3869 360.431 93.5202 360.431 97.4402C360.431 101.267 360.431 104.44 360.431 106.96C360.431 109.387 360.431 111.394 360.431 112.98C360.525 114.474 360.571 116.06 360.571 117.74H339.571C339.851 109.527 340.038 99.9136 340.131 88.9002C340.225 77.8869 340.271 65.1002 340.271 50.5402C340.271 44.1936 340.271 38.8269 340.271 34.4402C340.271 29.9602 340.225 25.9002 340.131 22.2602C340.131 18.6202 340.131 15.1202 340.131 11.7602C340.131 8.3069 340.131 4.3869 340.131 0.000231504H361.831ZM391.085 0.000231504C390.618 12.9736 390.245 26.1336 389.965 39.4802C389.778 52.8269 389.685 67.0136 389.685 82.0402C389.685 88.3869 389.685 93.5202 389.685 97.4402C389.685 101.267 389.685 104.44 389.685 106.96C389.685 109.387 389.685 111.394 389.685 112.98C389.778 114.474 389.825 116.06 389.825 117.74H368.825C369.105 109.527 369.292 99.9136 369.385 88.9002C369.478 77.8869 369.525 65.1002 369.525 50.5402C369.525 44.1936 369.525 38.8269 369.525 34.4402C369.525 29.9602 369.478 25.9002 369.385 22.2602C369.385 18.6202 369.385 15.1202 369.385 11.7602C369.385 8.3069 369.385 4.3869 369.385 0.000231504H391.085ZM459.119 34.0202L430.279 143.08H409.139L415.719 115.36L394.159 34.0202H416.279L423.979 74.7602C424.446 76.9069 424.819 78.5402 425.099 79.6602C425.472 80.7802 426.032 81.3402 426.779 81.3402C427.992 81.3402 429.019 79.1469 429.859 74.7602L437.839 34.0202H459.119Z" fill="white"/>
</svg>
